<?xml version="1.0" standalone="no"?>
<!DOCTYPE svg PUBLIC "-//W3C//DTD SVG 20010904//EN"
 "http://www.w3.org/TR/2001/REC-SVG-20010904/DTD/svg10.dtd">
<svg version="1.0" xmlns="http://www.w3.org/2000/svg"
 width="48.000000pt" height="48.000000pt" viewBox="0 0 48.000000 48.000000"
 preserveAspectRatio="xMidYMid meet" >
<g transform="translate(0.000000,48.000000) scale(0.0040,-0.0040)"
fill="#618264" stroke="none">
<path d="M4040 7374 c-515 -46 -930 -160 -1365 -374 -584 -287 -1051 -693
-1402 -1220 -294 -441 -470 -914 -550 -1471 -24 -175 -25 -632 0 -808 40 -286
104 -543 194 -785 81 -219 263 -566 388 -742 472 -662 1100 -1125 1856 -1369
385 -124 736 -179 1139 -179 586 0 1125 129 1653 395 679 343 1193 847 1560
1530 185 344 325 820 368 1253 17 174 7 595 -19 761 -78 502 -251 966 -510
1368 -284 441 -690 837 -1137 1108 -461 280 -911 435 -1485 514 -110 16 -585
28 -690 19z m382 -1521 l3 -157 97 -12 c303 -38 556 -175 714 -384 42 -56 111
-208 133 -295 19 -75 41 -221 41 -272 l0 -23 -303 0 -304 0 -12 87 c-34 242
-132 359 -324 388 l-47 7 0 -439 0 -439 156 -58 c499 -184 683 -311 799 -551
70 -146 80 -199 80 -425 0 -168 -4 -207 -23 -284 -74 -293 -256 -500 -550
-626 -121 -52 -361 -110 -453 -110 -5 0 -9 -95 -9 -230 l0 -230 -90 -2 c-49
-1 -100 -2 -112 -2 l-23 -1 0 229 0 230 -118 18 c-151 22 -329 69 -426 111
-220 95 -378 269 -457 505 -38 113 -64 274 -64 391 l0 81 313 -2 312 -3 7 -68
c12 -103 44 -238 69 -293 50 -106 173 -187 334 -219 l30 -5 0 491 0 491 -155
47 c-256 78 -379 134 -516 236 -229 171 -349 473 -315 796 27 255 123 456 292
613 154 143 314 213 554 243 l135 17 0 147 c0 80 3 149 7 152 3 4 55 7 114 7
l108 0 3 -157z" />
<path d="M4124 5180 c-130 -19 -230 -83 -279 -179 -51 -101 -57 -241 -15 -352
38 -105 125 -179 274 -239 42 -16 80 -30 84 -30 11 0 9 803 -3 805 -5 1 -33
-1 -61 -5z"/>
<path d="M4420 3224 l0 -447 48 7 c75 10 169 45 215 80 47 35 102 120 118 181
17 62 25 174 17 243 -17 151 -98 249 -270 332 -57 28 -109 50 -115 50 -10 0
-13 -96 -13 -446z" />
</g>
</svg>
